<svg width="580" height="400" xmlns="http://www.w3.org/2000/svg">
 <!-- Created with SVG Editor - http://github.com/mzalive/SVG Editor/ -->

 <g>
  <title>background</title>
  <rect fill="#fff" id="canvas_background" height="402" width="582" y="-1" x="-1"/>
  <g display="none" overflow="visible" y="0" x="0" height="100%" width="100%" id="canvasGrid">
   <rect fill="url(#gridpattern)" stroke-width="0" y="0" x="0" height="100%" width="100%"/>
  </g>
 </g>
 <g>
  <title>Layer 1</title>
  <defs>
   <linearGradient id="svg_8" y2="83.140865%" x2="91.0251713%" y1="10.3340199%" x1="5.60349836%">
    <stop offset="0%" stop-color="#AA4A9B"/>
    <stop offset="100%" stop-color="#F05922"/>
   </linearGradient>
   <linearGradient id="svg_7" y2="13.1640678%" x2="97.3658616%" y1="101.045045%" x1="1.96286404%">
    <stop offset="0%" stop-color="#FFE42E"/>
    <stop offset="100%" stop-color="#ED417C"/>
   </linearGradient>
   <linearGradient id="svg_6" y2="-3.94453335%" x2="99.4716753%" y1="92.3940687%" x1="12.2668091%">
    <stop offset="0%" stop-color="#FFE42E"/>
    <stop offset="100%" stop-color="#F05922"/>
   </linearGradient>
  </defs>
  <g stroke="null" transform="rotate(-90.41508483886719 31.999967575073242,38.999961853027344) " id="svg_16">
   <g stroke="null" transform="matrix(0.16878771048797547,0,0,0.15953858125648418,48.95424703451296,10.604840493214784) " id="svg_10">
    <path stroke="null" id="svg_11" fill="url(#svg_8)" d="m-82.640056,174.433195l-112.2906,-97.6518c-5.56519,-5.23653 -13.6557,-6.78435 -20.76078,-3.97181c-7.10509,2.81255 -11.94416,9.47855 -12.41739,17.10538c-0.47322,7.62684 3.5047,14.83991 10.2076,18.5092l126.30229,78.40812l0.57337,0.35835c3.52287,2.3156 8.25588,1.33691 10.57148,-2.18596c2.31559,-3.52288 1.3369,-8.25589 -2.18597,-10.57148l0,0z"/>
    <path stroke="null" id="svg_12" fill="url(#svg_7)" d="m27.231654,190.039565c-0.3947,-9.86231 -5.97451,-18.78088 -14.67084,-23.44936c-8.69633,-4.66848 -19.21289,-4.39097 -27.65091,0.72964l-157.67629,89.75006l-0.26877,0.14334c-4.65382,1.96843 -7.90398,6.27012 -8.52618,11.28466c-0.62219,5.01453 1.4781,9.9801 5.50972,13.02621c4.03162,3.04611 9.38206,3.70998 14.03588,1.74155l171.79549,-66.29571l0.43002,-0.17918c10.68587,-4.50852 17.46446,-15.16162 17.02188,-26.75121l0,0z"/>
    <path stroke="null" id="svg_13" fill="url(#svg_6)" d="m-99.751516,185.864725c1.82799,-3.54527 0.61803,-7.90023 -2.7768,-9.99441c-3.39483,-2.09419 -7.82968,-1.22136 -10.17774,2.00309l-66.56448,84.46432l-0.14334,0.28668c-2.89603,4.39511 -3.11058,10.0352 -0.55682,14.63761c2.55376,4.60241 7.45295,7.40502 12.71476,7.27355c5.2618,-0.13148 10.01491,-3.17526 12.33564,-7.89947l54.70292,-90.01883c0.16958,-0.24171 0.32512,-0.49297 0.46586,-0.75254l0,0z"/>
    <rect stroke="null" id="svg_14" height="91.416413" width="91.416413" y="135.157462" x="-146.83939" fill="#000000"/>
    <path stroke="null" id="svg_15" fill="#FFFFFF" d="m-112.509096,178.051485l-2.34709,-3.40328c1.90945,-0.71113 3.14557,-2.56893 3.06393,-4.60486c0.05995,-1.29254 -0.42038,-2.55178 -1.32591,-3.47605c-1.33836,-1.16274 -3.08858,-1.73753 -4.85571,-1.59468l-7.04168,0l0.07167,0l0,14.87174l4.12108,0l0,-4.51527l1.79178,0l3.01018,4.51527l2.75652,0l-0.0151,0.03584l4.31818,0l1.05715,-2.68767l5.78743,0l1.05715,2.68767l4.42569,0l-6.34289,-15.01509l-3.97774,0l-5.55464,13.18638zm-26.44648,31.37509l34.27668,0l0,5.71577l-34.27668,0l0,-5.71577zm-0.37627,-50.20556l2.65183,-2.50849c0.51783,0.80767 1.38965,1.32012 2.34722,1.37967c0.51041,-0.02398 0.98629,-0.26474 1.30799,-0.66173c0.3217,-0.39699 0.4586,-0.91244 0.37628,-1.41673l0,-9.42474l4.10317,0l0,9.44266c0.11704,1.54141 -0.41566,3.06157 -1.46926,4.19275c-1.10351,1.03136 -2.57638,1.574 -4.08525,1.5051c-2.05577,0.10137 -4.02373,-0.84217 -5.23198,-2.50849zm11.73613,-12.63202l11.98698,0l0,3.49396l-7.90173,0l0,2.27556l7.1671,0l0,3.26103l-7.1671,0l0,2.36514l8.00924,0l0,3.58356l-12.09449,0l0,-14.90758l0,-0.07167zm17.39815,3.61939l-4.44361,0l0,-3.58356l13.04413,0l0,3.58356l-4.46152,0l0,11.28818l-4.12109,0l0,-11.28818l-0.01791,0zm-28.75801,14.76423l7.63297,0c1.47818,-0.11678 2.94196,0.3604 4.06733,1.32591c0.62906,0.64572 0.97138,1.51768 0.94964,2.4189c0.03066,1.484 -0.89394,2.82033 -2.29347,3.31479c1.73115,0.30748 2.98352,1.82551 2.95643,3.58355c0,2.56224 -2.07847,4.10317 -5.6441,4.10317l-7.68672,0l0,-14.74632l0.01792,0zm8.60052,4.60486c0,-0.82421 -0.66295,-1.27216 -1.79177,-1.27216l-2.70558,0l0,2.616l2.59807,0c1.25425,0 1.97096,-0.43003 1.97096,-1.29008l-0.07168,-0.05376zm-1.43342,4.2286l-3.15352,0l0,2.74141l3.18936,0c1.27216,0 1.97095,-0.48378 1.97095,-1.36175c0.01792,-0.89588 -0.6092,-1.37966 -2.00679,-1.37966l0,0zm13.65334,-1.66636c0.54386,0.13472 1.11944,0.00726 1.55559,-0.34447c0.43614,-0.35173 0.68265,-0.88724 0.66621,-1.4473c0.018,-0.5641 -0.23084,-1.10371 -0.67155,-1.45628c-0.44071,-0.35256 -1.02178,-0.47688 -1.56817,-0.3355l-2.7235,0l0,3.58355l2.74142,0zm14.76423,1.82762l-1.66635,-4.21068l-1.68427,4.21068l3.35062,0zm7.22086,-8.99472l4.12108,0l0,14.90758l-4.12108,0l0,-14.90758zm5.16031,0l3.85232,0l6.12788,7.88381l0,-7.88381l4.08525,0l0,14.90758l-3.58356,0l-6.37872,-8.1705l0,8.1705l-4.08525,0l0,-14.90758l-0.01792,0zm14.31629,12.68578l2.29348,-2.74142c1.35952,1.13416 3.06748,1.76673 4.83779,1.79177c1.12882,0 1.79178,-0.37627 1.79178,-1.02131c0,-0.64504 -0.48378,-0.94964 -2.52641,-1.45134c-3.17144,-0.71671 -5.62617,-1.6126 -5.62617,-4.65862c0,-2.75933 2.18596,-4.76612 5.76952,-4.76612c2.21127,-0.08718 4.38205,0.61102 6.12787,1.97095l-2.06054,2.9206c-1.20637,-0.90936 -2.66484,-1.42264 -4.17484,-1.46926c-1.00339,0 -1.48717,0.41211 -1.48717,0.94964c0,0.68088 0.51961,0.98548 2.59807,1.45134c3.40438,0.75255 5.53659,1.79178 5.53659,4.6407c0,3.04602 -2.40098,4.85572 -6.02037,4.85572c-2.57774,0.07544 -5.09228,-0.80528 -7.0596,-2.47265l0,0z"/>
   </g>
  </g>
 </g>
</svg>